<?xml version="1.0" encoding="utf-8"?>
<!-- Generator: Adobe Illustrator 27.6.1, SVG Export Plug-In . SVG Version: 6.00 Build 0)  -->
<svg version="1.1" id="Layer_1" xmlns="http://www.w3.org/2000/svg" xmlns:xlink="http://www.w3.org/1999/xlink" x="0px" y="0px"
	 viewBox="0 0 1296 69.9" style="enable-background:new 0 0 1296 69.9;" xml:space="preserve">
<style type="text/css">
	.st0{fill:#4A8BA6;}
	.st1{opacity:0.35;fill:#A9C6D9;}
	.st2{fill:#2B8CB2;}
	.st3{fill:#286A82;}
	.st4{opacity:0.35;fill:#2B8CB2;}
	.st5{opacity:0.44;fill:#A9C6D9;}
	.st6{fill:#A9C6D9;}
</style>
<path class="st0" d="M667.8,54.2c-2.4-1.1-5-2.2-7.7-3.4c-36.8,3.9-70,9.8-99.3,17.6c-8.4,2.2-16.5,4.6-24.2,7.2
	c-34.1,11.3-62.3,25.5-84,42.3c-21.4,16.6-32.4,32.6-38,43.6h5.4c5.6-10.3,16.4-25.3,36.9-40.9c22.7-17.3,61.1-37.9,124.5-52.2
	c25.1-5.7,54.2-10.4,87.8-13.6C668.7,54.6,668.2,54.4,667.8,54.2z"/>
<path class="st1" d="M1094.5,56.2c-0.6-0.3-1.2-0.6-1.7-0.8L1092,55c-17-7.6-32.9-16.6-47.5-26.6c-1,0.1-1.9,0.2-2.9,0.2
	c-0.6,0-1.1,0.1-1.7,0.1c-1.1,0.1-2.1,0.2-3.2,0.2c14,10.1,29.5,19.2,46.3,27.3c2.5,1.2,5.1,2.4,7.7,3.6
	c56.1,26.8,84.8,52.9,99,70.2c6.3,7.5,10.5,14,13.3,19.3h5.7C1197.8,130.9,1167.2,94.3,1094.5,56.2z"/>
<path class="st2" d="M871.7,0.1l0.1-0.1L871.7,0.1C871.7,0,871.7,0.1,871.7,0.1z"/>
<path class="st1" d="M1045.2,29.5c-7.3-6.7-14.1-13.6-20.3-20.9C1014.1-4,1005.1-17.5,998-31.8c-13.3-26.7-16.5-49.2-17.3-58.5h-4.9
	c0.7,9.4,3.9,32.3,17.5,60c6.7,13.6,15.1,26.6,25.2,38.9c6,7.4,12.7,14.4,19.9,21.2h0.1"/>
<path class="st3" d="M1241.8-38.9c-14,11.3-34.3,23.9-63.2,35C1145.1,9,1100,19.9,1039.7,24.6l0.1,0.1l-11.3,0.7c0,0,0,0-0.1,0
	c-6.2,0.4-12.4,0.7-19.9,1l-1.9,0.1l0,0C993.4,27,979.4,27.1,965,27c-16.3-0.4-31.8-0.3-46.3,0.5c3.2,1.5,6.5,3,9.9,4.5
	c11.2-0.4,23.1-0.4,36.3-0.1h0.1c19.2,0.2,38.8-0.2,58.5-1.3l0,0c7.3-0.4,14.5-0.9,21.3-1.5c38.2-3.1,73-9.1,103.6-17.6
	c15.7-4.4,30.2-9.6,43.6-15.4c21-9.1,39.1-19.8,54.2-32.2c14.3-11.7,24.1-23.5,30.9-33.9v-9.6C1270.5-67.7,1259.6-53.3,1241.8-38.9z
	"/>
<path class="st3" d="M1025.5,30.4l1.9-0.1C1026.8,30.3,1026.1,30.3,1025.5,30.4L1025.5,30.4z"/>
<path d="M1029,21.2L1029,21.2L1029,21.2L1029,21.2z"/>
<path class="st0" d="M913.2-98.5H910c-3,11.5-12.3,38.2-39,65.9c-5.1,5.5-10.8,10.7-16.8,15.6c-4,3.3-7.8,6.2-11.4,8.7
	c-4.2,3-8.5,5.9-13,8.7C787.7,26.6,732.9,43,666.6,49.2c-0.1,0-0.1,0-0.2,0c2.1,1.4,4.2,2.9,6.4,4.4c0,0,0,0,0.1,0
	c47.1-4.8,88.6-14.9,123.6-30.1c15.4-6.7,29.8-14.5,42.8-23.2c0.8-0.6,1.6-1.1,2.4-1.7c1.3-0.9,2.7-1.8,4-2.8
	c3.4-2.5,7-5.3,10.8-8.3c1-0.8,2-1.7,3.1-2.6c5.6-4.7,10.9-9.7,15.8-14.8c28.1-29.6,37.1-57.9,39.6-68.4L913.2-98.5z"/>
<path class="st3" d="M913.7,29c-0.1,0-0.1,0-0.2,0c-20.3,2.9-38.7,7.1-54.8,12.4c-18.3,5.9-34.5,13.4-48.8,22.4
	c-10.5,6.6-19.9,14.1-28,22.3c-5.9,5.9-11.3,12.4-16.2,19.4c-2.8,3.9-5.2,7.8-7.1,11.5c-8.7,15.9-12.4,30.3-13.9,40h5.1
	c1.5-8.9,4.8-21.5,12.1-35.6c2-3.9,4.5-8.1,7.4-12.3c4.6-6.9,10.1-13.6,16.3-19.8c9.7-9.6,20.9-18.1,33.6-25.4
	C846.1,48.3,879.7,38,919.7,33h0.1C917.8,31.7,915.7,30.3,913.7,29z"/>
<path class="st4" d="M1071.3,93.9c-16-12.4-35.7-21-57-28.9c-7.7-2.8-15.5-5.5-23.5-8.3l-1.4-0.5c-14.8-5.1-30-10.4-44.6-16.7
	c-9.3-4-18-8.2-25.7-12.6c-1.4-0.8-2.7-1.6-4-2.3c-2.7-1.6-5.2-3.2-7.7-4.9c-11.3-7.4-20.8-15.6-29-24.7h-6.6l-0.1,0.1
	c8,9.6,17.3,18,28.1,25.7c0.5,0.3,0.9,0.7,1.4,1c5.5,3.8,11.5,7.5,18.8,11.4c2.5,1.4,5.1,2.7,7.6,3.9C947,46.7,967.9,54,988.3,61
	l0.6,0.2c3.5,1.2,7,2.4,10.5,3.7c25.7,9,49.6,18.2,68.1,32.3c20.4,15.5,31.9,35.1,35.6,60.8h5C1104.3,131.1,1092.2,110,1071.3,93.9z
	"/>
<path class="st5" d="M719.7,91.3l-2.9-2.7c-6.8-6.5-13.3-12.7-20.2-18.6c-3-2.5-6.1-5-9.3-7.5l-1.4-1c-6.6-4.8-12.7-8.7-18.6-12
	l-2.3-1.3v-0.1c-3.7-2-7.1-3.6-10.4-5.1c-71.3-31.8-113.7-30.5-292.1-25l-18.8,0.6c-15,0.5-31.1,0.9-48,1.4
	c-5.5,0.2-11,0.2-16.2,0.2c-55.8,0-97.9-8.4-129.3-20.3h-0.4C120.3-11.4,100-25.6,86.3-39C61-63.4,53-88.7,50.7-98.9h-3.2l-1.7,0.1
	C48-88.6,55.9-62.3,82.1-36.4c14.8,14.7,33.2,26.8,55,36.4h0.3c6.4,2.8,13,5.4,20.1,7.7c38.2,12.7,84.8,18.5,138.4,17
	c16.9-0.5,33-1,48-1.4l19.1-0.6c169.8-5.1,215.4-6.5,280.6,20.8h0.1c1.2,0.5,2.4,1,3.6,1.6c1.7,0.7,3.5,1.5,5.3,2.3
	c4.9,2.1,9.9,4.7,15.7,8.1c1.6,0.9,3.1,1.9,4.6,2.8l7.6,4.6l-0.8,0.1c3.2,2.3,6.2,4.6,9.2,6.9c9,7.2,17.1,15,25.4,22.9l1.7,1.6
	c6.7,6.4,13.6,13,21.3,19.5c0.9-1.5,1.8-2.9,2.6-4.2C732.7,103.7,726.1,97.4,719.7,91.3z"/>
<path class="st6" d="M680.5,63l-7.6-4.6c2.4,1.5,4.6,3,6.9,4.6H680.5z"/>
<path class="st6" d="M667.2,49.4c-0.7-0.4-1.4-0.8-2.2-1.2v0.1l2.3,1.3c6,3.3,12.1,7.2,18.6,12l1.4,1l0,0c-0.5-0.4-1.1-0.8-1.6-1.2
	C679.3,56.6,673.3,52.7,667.2,49.4z"/>
</svg>
