<?xml version="1.0" encoding="utf-8"?>
<!-- Generator: Adobe Illustrator 26.5.0, SVG Export Plug-In . SVG Version: 6.00 Build 0)  -->
<svg version="1.1" id="Layer_1" xmlns="http://www.w3.org/2000/svg" xmlns:xlink="http://www.w3.org/1999/xlink" x="0px" y="0px"
	 viewBox="0 0 200 29.4" style="enable-background:new 0 0 200 29.4;" xml:space="preserve">
<style type="text/css">
	.st0{fill:#4A8BA6;}
	.st1{fill:#A9C6D9;}
	.st2{fill:#FFFFFF;}
</style>
<g>
	<g>
		<g>
			<path class="st0" d="M38.4,16.9c0.6,0.6,1,1.6,1,2.9s-0.5,2.4-1.4,3.2c-0.9,0.8-2.3,1.3-4,1.3c-1.7,0-3-0.4-3.8-1.1
				c-0.8-0.7-1.3-1.8-1.5-3.1l1.6-0.3c0.3,1.9,1.5,2.9,3.6,2.9c2.4,0,3.6-0.9,3.6-2.8c0-0.8-0.2-1.4-0.7-1.8s-1.2-0.7-2.2-1L33,16.6
				c-1.5-0.4-2.6-0.9-3.2-1.6c-0.6-0.6-0.9-1.6-0.9-2.9c0-1.3,0.4-2.4,1.3-3.3c0.9-0.9,2.2-1.3,3.9-1.3c1.7,0,2.9,0.4,3.7,1.1
				c0.8,0.7,1.3,1.8,1.5,3.1L37.6,12c-0.3-1.9-1.4-2.9-3.4-2.9c-2.3,0-3.4,0.9-3.4,2.8c0,0.8,0.2,1.4,0.6,1.8c0.4,0.4,1.1,0.7,2.1,1
				l1.5,0.4C36.6,15.7,37.7,16.2,38.4,16.9z"/>
			<path class="st0" d="M43.6,17.7c0,0.7,0,1.4,0.1,1.9c0.1,0.6,0.3,1.1,0.5,1.6c0.5,1,1.4,1.6,2.8,1.6c1.1,0,1.9-0.2,2.4-0.7
				c0.5-0.4,0.7-1.1,0.8-1.9l1.5,0.1c-0.1,1.3-0.5,2.3-1.2,3s-1.9,1-3.5,1c-2.3,0-3.8-0.9-4.6-2.8c-0.4-1-0.6-2.2-0.6-3.4
				s0.1-2.2,0.2-2.9c0.1-0.7,0.4-1.4,0.8-2.1c0.8-1.4,2.2-2,4.2-2c1.6,0,2.8,0.3,3.5,1c0.7,0.7,1.1,1.6,1.2,2.9l-1.5,0.2
				c0-0.9-0.3-1.5-0.8-1.9c-0.5-0.4-1.3-0.7-2.4-0.7c-1.4,0-2.3,0.5-2.8,1.6C43.9,15,43.6,16.2,43.6,17.7z"/>
			<path class="st0" d="M56.9,12.5c1.4-1,2.8-1.5,4.2-1.5s2.4,0.3,3,1c0.6,0.7,0.9,1.7,0.9,3v9h-1.9v-8.9c0-0.9-0.2-1.5-0.5-1.9
				c-0.3-0.4-0.9-0.6-1.7-0.6c-1.4,0-2.7,0.5-4,1.5V24H55V7.2L56.9,7V12.5z"/>
			<path class="st0" d="M73.7,24.3c-1.9,0-3.3-0.5-4.1-1.6c-0.8-1.1-1.2-2.8-1.2-5c0-4.4,1.8-6.6,5.3-6.6c3.5,0,5.2,2.1,5.2,6.4v0.5
				h-8.6c0,1.7,0.3,3,0.8,3.7s1.4,1.1,2.7,1.1c2.1,0,3.2-0.8,3.4-2.5l1.6,0.1C78.3,23,76.7,24.3,73.7,24.3z M76.1,13.6
				c-0.5-0.7-1.3-1-2.5-1c-1.1,0-2,0.3-2.5,1c-0.5,0.7-0.8,1.6-0.9,2.8h6.7C76.9,15.2,76.6,14.3,76.1,13.6z"/>
			<path class="st0" d="M88,11c1.7,0,2.9,0.6,3.4,1.7c0.5-0.5,1.2-0.9,2-1.2c0.8-0.3,1.5-0.5,2.4-0.5c2.6,0,3.8,1.3,3.8,4v9h-1.9
				v-8.9c0-0.8-0.2-1.4-0.5-1.9c-0.4-0.4-0.9-0.6-1.7-0.6c-1.3,0-2.5,0.5-3.6,1.5c0,0.3,0.1,0.6,0.1,0.9v9H90v-8.9
				c0-0.8-0.2-1.4-0.5-1.9s-0.9-0.6-1.7-0.6c-1.3,0-2.5,0.5-3.5,1.4v10h-1.9V11.4h1.2l0.5,1.3C85.1,11.6,86.5,11,88,11z"/>
			<path class="st0" d="M111.2,11.9c0.9,0.6,1.3,1.8,1.3,3.6V24h-1.3l-0.5-2c-1.4,1.5-3,2.3-4.7,2.3c-1.1,0-1.9-0.3-2.5-0.9
				c-0.5-0.6-0.8-1.4-0.8-2.4c0-1,0.3-1.8,0.9-2.4c0.6-0.6,1.8-1.1,3.5-1.3l3.3-0.5v-1.3c0-1.1-0.2-1.8-0.7-2.3
				c-0.5-0.4-1.1-0.6-1.9-0.6c-1.6,0-2.6,0.8-2.9,2.4l-1.5-0.5c0.2-1.1,0.7-1.9,1.5-2.5c0.8-0.6,1.8-0.9,3.1-0.9
				C109.4,11,110.4,11.3,111.2,11.9z M106.6,22.8c1.3,0,2.7-0.7,4-2.1V18l-3.1,0.5c-1,0.2-1.8,0.5-2.2,0.9c-0.4,0.4-0.6,0.9-0.6,1.5
				c0,0.6,0.2,1,0.5,1.4C105.5,22.7,106,22.8,106.6,22.8z"/>
			<path class="st0" d="M114.8,9.4V7.9h10.6v1.5h-4.3V24h-1.9V9.4H114.8z"/>
			<path class="st0" d="M129.8,12.5c1.4-1,2.8-1.5,4.2-1.5s2.4,0.3,3,1c0.6,0.7,0.9,1.7,0.9,3v9H136v-8.9c0-0.9-0.2-1.5-0.5-1.9
				s-0.9-0.6-1.7-0.6c-1.4,0-2.7,0.5-4,1.5V24h-1.9V7.2l1.9-0.2V12.5z"/>
			<path class="st0" d="M146.5,24.3c-1.9,0-3.3-0.5-4.1-1.6c-0.8-1.1-1.2-2.8-1.2-5c0-4.4,1.8-6.6,5.3-6.6c3.5,0,5.2,2.1,5.2,6.4
				v0.5H143c0,1.7,0.3,3,0.8,3.7s1.4,1.1,2.7,1.1c2.1,0,3.2-0.8,3.4-2.5l1.6,0.1C151.2,23,149.5,24.3,146.5,24.3z M148.9,13.6
				c-0.5-0.7-1.3-1-2.5-1c-1.1,0-2,0.3-2.5,1c-0.5,0.7-0.8,1.6-0.9,2.8h6.7C149.7,15.2,149.4,14.3,148.9,13.6z"/>
			<path class="st0" d="M157,24h-1.9V11.4h1.1l0.7,2.3c1-1.6,2.5-2.5,4.5-2.6v1.7c-2,0.1-3.5,0.9-4.4,2.5V24z"/>
			<path class="st0" d="M171.1,11.9c0.9,0.6,1.3,1.8,1.3,3.6V24h-1.3l-0.5-2c-1.4,1.5-3,2.3-4.7,2.3c-1.1,0-1.9-0.3-2.5-0.9
				c-0.5-0.6-0.8-1.4-0.8-2.4c0-1,0.3-1.8,0.9-2.4c0.6-0.6,1.8-1.1,3.5-1.3l3.3-0.5v-1.3c0-1.1-0.2-1.8-0.7-2.3
				c-0.5-0.4-1.1-0.6-1.9-0.6c-1.6,0-2.6,0.8-2.9,2.4l-1.5-0.5c0.2-1.1,0.7-1.9,1.5-2.5c0.8-0.6,1.8-0.9,3.1-0.9
				S170.3,11.3,171.1,11.9z M166.5,22.8c1.3,0,2.7-0.7,4-2.1V18l-3.1,0.5c-1,0.2-1.8,0.5-2.2,0.9c-0.4,0.4-0.6,0.9-0.6,1.5
				c0,0.6,0.2,1,0.5,1.4C165.4,22.7,165.9,22.8,166.5,22.8z"/>
			<path class="st0" d="M182.4,11c3.2,0,4.8,2.2,4.8,6.6s-1.6,6.6-4.9,6.6c-1.1,0-2.2-0.2-3.5-0.7v5.3l-1.9,0.3V11.4h1.1l0.4,1.1
				C179.7,11.5,181.1,11,182.4,11z M184.5,14c-0.5-1-1.3-1.4-2.5-1.4c-1.1,0-2.2,0.4-3.3,1.1v8.5c0.9,0.4,2,0.6,3.1,0.6
				c2.3,0,3.4-1.7,3.4-5.1C185.3,16.2,185,15,184.5,14z"/>
			<path class="st0" d="M193.3,29.4l-1.7-0.3l1.9-5l-4.8-12.7h2l3.7,10.2l3.6-10.2h1.9L193.3,29.4z"/>
		</g>
	</g>
	<g>
		<path class="st1" d="M24.3,0c0,0,5.4,26.4-24.2,26.8c0,0-2.2-14.1,11.4-18.9C21.1,4.4,24.3,0,24.3,0z"/>
		<g>
			<path class="st2" d="M14,23.9c-1.7,0-3.2-0.4-4.4-1.1c-1.3-0.7-2.3-1.7-3-3c-0.7-1.3-1.1-2.7-1.1-4.4c0-1.7,0.3-3.1,1-4.4
				c0.7-1.3,1.6-2.3,2.8-3c1.2-0.7,2.6-1.1,4.1-1.1c1.5,0,2.9,0.3,4.1,1c1.2,0.7,2.1,1.7,2.8,2.9c0.7,1.3,1,2.7,1,4.4
				c0,0.1,0,0.1,0,0.2c0,0.1,0,0.2,0,0.2H6.6v-1.2h13.8l-0.6,0.6c0-1.3-0.2-2.5-0.8-3.5c-0.6-1-1.3-1.8-2.3-2.4
				c-1-0.6-2.1-0.9-3.3-0.9c-1.2,0-2.3,0.3-3.3,0.9c-1,0.6-1.7,1.4-2.3,2.4C7.3,12.8,7,14,7,15.3v0.3c0,1.4,0.3,2.6,0.9,3.6
				s1.4,1.9,2.5,2.4c1.1,0.6,2.3,0.9,3.6,0.9c1.1,0,2.1-0.2,3-0.6c0.9-0.4,1.7-1,2.3-1.7l0.9,1c-0.7,0.9-1.6,1.6-2.7,2
				C16.5,23.7,15.3,23.9,14,23.9z"/>
		</g>
		<path class="st0" d="M25.8,11c0,0-1.9,22.5-25.7,15.8c0,0,3.2-3.3,12.2-4C22.6,22.6,25.8,11,25.8,11z"/>
	</g>
</g>
</svg>
