<?xml version="1.0" encoding="utf-8"?>
<!-- Generator: Adobe Illustrator 26.0.1, SVG Export Plug-In . SVG Version: 6.00 Build 0)  -->
<svg version="1.1" id="Layer_1" xmlns="http://www.w3.org/2000/svg" xmlns:xlink="http://www.w3.org/1999/xlink" x="0px" y="0px"
	 viewBox="0 0 300 200" style="enable-background:new 0 0 300 200;" xml:space="preserve">
<style type="text/css">
	.st0{fill:#27AAE1;}
	.st1{fill:#673B97;}
</style>
<g>
	<path class="st0" d="M54.1,153.6c-19.3,0-33.1-5.2-41.4-15.7C4.5,127.5,0.3,111.7,0.3,90.5c0-42,17.6-63,52.9-63
		c20.3,0,34.2,6.3,41.6,18.9c6.4,10.8,9.7,24.8,9.7,42V96H27.7c0.1,13.2,2.3,22.4,6.5,27.8c4.2,5.4,11.1,8.1,20.8,8.1
		c15.5,0,23.8-5.6,24.8-16.8l23.1,0.8C100.6,141,84.4,153.6,54.1,153.6z M70.3,56c-3.5-4.5-9.2-6.8-17.2-6.8s-13.8,2.2-17.5,6.6
		c-3.7,4.4-6.1,11.5-7.2,21.1h48.5C76,67.5,73.8,60.5,70.3,56z"/>
	<path class="st1" d="M216.7,117c0,24-16.8,35.9-50.4,35.9c-14.7,0-25.6-3.2-32.8-9.6c-7.1-6.4-11.6-15.7-13.4-27.8l21.8-3.4
		c1.5,13.4,9.9,20.2,25.1,20.2c15.2,0,22.8-4.8,22.8-14.3c0-3.9-1.5-6.9-4.5-8.8c-3-2-9.1-4-18.2-6.1l-9.7-2.3
		c-12.5-2.9-21.4-7.2-26.8-12.9c-5.4-5.7-8.1-13.9-8.1-24.7c0-23.8,16.2-35.7,48.7-35.7c14,0,24.5,3.2,31.4,9.6
		c6.9,6.4,11.2,15.7,12.9,27.8L193.8,68c-1.5-13.3-9.3-20-23.2-20c-13.9,0-20.9,4.8-20.9,14.3c0,3.9,1.4,6.9,4.1,8.9
		c2.7,2,8.3,4,16.7,6l10.9,2.7c12.5,3.1,21.5,7.4,27,12.9C214,98.5,216.7,106.5,216.7,117z"/>
	<path class="st1" d="M227.7,48.7V30.4H247V8.6l28.2-7.1v29H298v18.3h-22.9v67.9c0,6,0.9,10.3,2.6,12.8c1.7,2.5,4.3,3.8,7.8,3.8
		c3.4,0,7.2-0.6,11.2-1.7l3.6,17.4c-8.3,3.1-15.7,4.6-22.2,4.6c-6.5,0-11.7-0.8-15.7-2.3c-3.9-1.5-6.9-3.3-8.8-5.4
		c-2-2-3.4-4.8-4.4-8.3c-1.5-4.9-2.3-11-2.3-18.3V48.7H227.7z"/>
</g>
<g>
	<path class="st1" d="M10.8,199c-3.8,0-6.5-1-8.1-3.1c-1.6-2-2.4-5.1-2.4-9.2c0-8.2,3.4-12.3,10.3-12.3c4,0,6.7,1.2,8.1,3.7
		c1.3,2.1,1.9,4.8,1.9,8.2v1.5h-15c0,2.6,0.5,4.4,1.3,5.4c0.8,1.1,2.2,1.6,4.1,1.6c3,0,4.6-1.1,4.8-3.3l4.5,0.2
		C19.9,196.6,16.7,199,10.8,199z M14,180c-0.7-0.9-1.8-1.3-3.4-1.3s-2.7,0.4-3.4,1.3c-0.7,0.9-1.2,2.2-1.4,4.1h9.5
		C15.1,182.2,14.7,180.9,14,180z"/>
	<path class="st1" d="M24.5,188.2v-3h4.8v3H24.5z"/>
	<path class="st1" d="M48,187.5c1,1,1.4,2.6,1.4,4.7c0,2.1-0.7,3.7-2.1,5c-1.4,1.2-3.5,1.9-6.3,1.9c-2.8,0-4.8-0.6-6-1.8
		c-1.2-1.2-2-2.9-2.3-5.1l3.5-0.6c0.1,1.3,0.6,2.3,1.3,3c0.7,0.7,1.8,1.1,3.1,1.1c2.9,0,4.3-1.1,4.3-3.3c0-0.9-0.3-1.6-0.8-2.1
		c-0.5-0.5-1.6-0.9-3.1-1.3l-1.8-0.5c-2.2-0.5-3.7-1.3-4.6-2.4c-0.9-1.1-1.4-2.6-1.4-4.8c0-2.1,0.7-3.8,2-5c1.4-1.2,3.4-1.8,6-1.8
		c2.7,0,4.6,0.6,5.8,1.8c1.2,1.2,1.9,2.9,2.2,5.1l-3.5,0.6c-0.3-2.7-1.7-4-4.2-4c-1.4,0-2.4,0.3-3,0.9c-0.6,0.6-1,1.4-1,2.4
		s0.2,1.7,0.7,2.2c0.5,0.5,1.4,0.9,2.9,1.3l2,0.6C45.5,185.7,47.1,186.5,48,187.5z"/>
	<path class="st1" d="M62.3,178c-2,0-3.4,0.7-4.1,2c-0.7,1.3-1.1,3.6-1.1,6.7c0,3.1,0.4,5.4,1.1,6.7c0.7,1.3,2.1,2,4.1,2
		c1.6,0,2.7-0.4,3.4-1.3c0.7-0.9,1-2.1,1.1-3.8l3.6,0.2c-0.2,2.8-0.8,4.9-2,6.3c-1.2,1.4-3.2,2.1-6,2.1c-3.7,0-6.2-1.1-7.7-3.2
		c-0.7-1.1-1.2-2.3-1.5-3.8c-0.3-1.4-0.4-3.2-0.4-5.3c0-2.1,0.1-3.8,0.4-5.3c0.3-1.4,0.8-2.7,1.5-3.8c1.4-2.2,4-3.2,7.7-3.2
		c2.7,0,4.6,0.6,5.7,1.8c1.2,1.2,1.9,2.9,2.1,5.3l-3.6,0.6c-0.1-1.3-0.5-2.3-1.2-3C64.7,178.3,63.7,178,62.3,178z"/>
	<path class="st1" d="M87.4,174.9h4.4v23.7h-4.4v-10.2h-8.8v10.2h-4.4v-23.7h4.4V185h8.8V174.9z"/>
	<path class="st1" d="M97.9,174.9h13.4v3.4h-9v6.6h8.1v3.4h-8.1v6.9h9.6v3.4h-14V174.9z"/>
	<path class="st1" d="M132.2,174.9h6.2l0.6,23.7h-4.3l-0.4-18.2l-5.3,15.4h-3.8l-4.8-14.9l-0.3,17.7h-4.3l0.6-23.7h6.2l4.6,15
		L132.2,174.9z"/>
	<path class="st1" d="M149.3,174.9h5.7l7.3,23.7H158l-2-6.6h-7.8l-2,6.6H142L149.3,174.9z M152.1,179.1l-2.9,9.6h5.8L152.1,179.1z"
		/>
	<path class="st1" d="M161.3,178.2v-3.3h16.8v3.3H172v20.3h-4.4v-20.3H161.3z"/>
	<path class="st1" d="M194.3,174.9h4.4v23.7h-4.4v-10.2h-8.8v10.2h-4.4v-23.7h4.4V185h8.8V174.9z"/>
	<path class="st1" d="M204.8,174.9h13.4v3.4h-9v6.6h8.1v3.4h-8.1v6.9h9.6v3.4h-14V174.9z"/>
	<path class="st1" d="M223,174.9h8.3c3,0,5.1,0.8,6.3,2.4c1,1.4,1.5,3,1.5,4.8c0,3.3-1.3,5.4-3.8,6.5c0.5,0.5,0.9,1.2,1.2,1.9
		l3.6,8.1h-4.7l-3.4-7.7c-0.3-0.6-0.6-1.1-1-1.3c-0.4-0.2-0.9-0.4-1.6-0.4h-1.9v9.4H223V174.9z M227.4,185.8h3.3
		c1.3,0,2.3-0.4,2.9-1.1c0.6-0.7,1-1.6,1-2.7c0-1.1-0.3-2-1-2.7c-0.6-0.7-1.6-1.1-2.9-1.1h-3.3V185.8z"/>
	<path class="st1" d="M248.9,174.9h5.7l7.3,23.7h-4.2l-2-6.6h-7.8l-2,6.6h-4.3L248.9,174.9z M251.8,179.1l-2.9,9.6h5.8L251.8,179.1z
		"/>
	<path class="st1" d="M273.4,190.2h-3.8v8.4h-4.4v-23.7h8.2c2.9,0,4.9,0.8,6,2.3c1,1.4,1.5,3.2,1.5,5.3c0,2.1-0.5,3.9-1.5,5.3
		C278.3,189.4,276.2,190.2,273.4,190.2z M269.6,186.7h3.1c2.6,0,3.8-1.4,3.8-4.2c0-2.8-1.3-4.2-3.8-4.2h-3.1V186.7z"/>
	<path class="st1" d="M293,198.6h-4.4v-8.2l-7.3-15.4h4.4l5.1,11.3l5.1-11.3h4.4l-7.3,15.4V198.6z"/>
</g>
</svg>
