<?xml version="1.0" encoding="utf-8"?>
<!-- Generator: Adobe Illustrator 26.3.1, SVG Export Plug-In . SVG Version: 6.00 Build 0)  -->
<svg version="1.1" id="Layer_1" xmlns="http://www.w3.org/2000/svg" xmlns:xlink="http://www.w3.org/1999/xlink" x="0px" y="0px"
	 viewBox="0 0 200 75" style="enable-background:new 0 0 200 75;" xml:space="preserve">
<style type="text/css">
	.st0{fill:#4B8AA6;}
	.st1{fill:#A9C5D8;}
</style>
<g>
	<g>
		<path class="st0" d="M83.8,26.4c0.9,0.8,1.3,2.1,1.3,3.7c0,1.6-0.6,3-1.8,4c-1.2,1-3,1.5-5.4,1.5c-2.4,0-4.1-0.5-5.2-1.4
			c-1.1-0.9-1.8-2.3-2.1-4l2.4-0.4c0.3,2.3,1.9,3.4,4.7,3.4c3.1,0,4.6-1,4.6-3.1c0-0.9-0.3-1.6-0.8-2c-0.6-0.4-1.5-0.8-3-1.2
			l-1.9-0.5c-2-0.5-3.4-1.2-4.2-2c-0.8-0.8-1.2-2.1-1.2-3.7s0.6-3,1.8-4c1.2-1,2.9-1.5,5.2-1.5c2.3,0,4,0.5,5,1.4c1,0.9,1.7,2.3,2,4
			l-2.4,0.4c-0.3-2.3-1.7-3.4-4.4-3.4c-2.9,0-4.3,1-4.3,3.1c0,0.9,0.3,1.6,0.8,2c0.5,0.4,1.4,0.8,2.8,1.2l2,0.5
			C81.5,24.9,82.9,25.6,83.8,26.4z"/>
		<path class="st0" d="M92,25.5c0,1.1,0.1,2.1,0.2,3c0.1,0.9,0.4,1.7,0.7,2.5c0.7,1.6,2.2,2.4,4.3,2.4c1.7,0,2.9-0.3,3.7-1
			c0.7-0.7,1.1-1.7,1.2-3l2.4,0.1c-0.2,2-0.8,3.6-1.9,4.6s-2.9,1.6-5.4,1.6c-3.6,0-5.9-1.5-7.1-4.4c-0.6-1.6-1-3.3-1-5.2
			c0-1.9,0.1-3.4,0.3-4.5c0.2-1.1,0.6-2.2,1.2-3.2c1.2-2.1,3.3-3.1,6.5-3.1c2.5,0,4.3,0.5,5.4,1.5c1.1,1,1.7,2.5,1.9,4.5l-2.3,0.3
			c-0.1-1.3-0.5-2.3-1.2-3c-0.7-0.7-2-1-3.7-1c-2.1,0-3.5,0.8-4.3,2.4C92.3,21.4,92,23.2,92,25.5z"/>
		<path class="st0" d="M112.8,17.6c2.2-1.5,4.3-2.3,6.5-2.3c2.2,0,3.7,0.5,4.6,1.5c0.9,1,1.4,2.5,1.4,4.6v13.8h-2.9V21.5
			c0-1.4-0.3-2.3-0.8-2.9s-1.4-0.9-2.6-0.9c-2.1,0-4.2,0.8-6.1,2.3v15.3h-2.9V9.4l2.9-0.3V17.6z"/>
		<path class="st0" d="M139,35.7c-3,0-5.1-0.8-6.4-2.5c-1.3-1.7-1.9-4.2-1.9-7.7c0-6.8,2.7-10.2,8.1-10.2c5.4,0,8,3.3,8,9.8v0.7
			h-13.3c0,2.7,0.4,4.6,1.2,5.8s2.2,1.8,4.2,1.8c3.2,0,4.9-1.3,5.2-3.9l2.4,0.1C146.2,33.7,143.6,35.7,139,35.7z M142.7,19.2
			c-0.7-1-2-1.5-3.8-1.5s-3,0.5-3.8,1.6c-0.8,1.1-1.2,2.5-1.4,4.4H144C143.9,21.7,143.4,20.3,142.7,19.2z"/>
		<path class="st0" d="M161.3,15.3c2.6,0,4.4,0.9,5.3,2.7c0.8-0.7,1.8-1.4,3-1.9c1.2-0.5,2.4-0.8,3.6-0.8c3.9,0,5.9,2,5.9,6.1v13.9
			h-2.9V21.6c0-1.3-0.3-2.2-0.8-2.9c-0.5-0.7-1.4-1-2.7-1c-2,0-3.9,0.8-5.6,2.3c0.1,0.5,0.1,0.9,0.1,1.4v13.9h-2.9V21.6
			c0-1.3-0.3-2.2-0.8-2.9s-1.4-1-2.7-1c-2,0-3.8,0.7-5.4,2.1v15.4h-2.9V15.8h1.8l0.7,1.9C157,16.1,159.1,15.3,161.3,15.3z"/>
		<path class="st0" d="M197.5,16.6c1.4,1,2,2.8,2,5.5v13.1h-1.9l-0.7-3c-2.2,2.3-4.6,3.5-7.2,3.5c-1.7,0-3-0.5-3.8-1.4
			c-0.8-0.9-1.2-2.1-1.2-3.7c0-1.5,0.5-2.8,1.4-3.7c1-1,2.8-1.6,5.4-2.1l5.1-0.8v-1.9c0-1.7-0.4-2.8-1.1-3.5c-0.7-0.6-1.7-1-2.9-1
			c-2.5,0-4,1.2-4.5,3.6l-2.4-0.7c0.4-1.7,1.1-3,2.3-3.9c1.2-0.9,2.7-1.4,4.7-1.4C194.7,15.3,196.3,15.7,197.5,16.6z M190.4,33.5
			c2,0,4.1-1.1,6.1-3.3v-4.1l-4.8,0.8c-1.6,0.3-2.7,0.8-3.3,1.4c-0.6,0.6-0.9,1.4-0.9,2.3c0,0.9,0.2,1.6,0.7,2.1
			C188.7,33.2,189.4,33.5,190.4,33.5z"/>
		<path class="st0" d="M69.5,48.8v-2h3.3v-3.5l2.9-1.2v4.7h4.1v2h-4.1v12.9c0,1,0.1,1.7,0.4,2.2s0.7,0.6,1.2,0.6
			c0.5,0,1.2-0.1,2-0.3l0.3,2c-1.2,0.4-2.3,0.5-3.1,0.5c-0.9,0-1.5-0.1-2.1-0.4c-0.5-0.3-0.9-0.7-1.2-1.2c-0.4-0.8-0.6-1.9-0.6-3.3
			v-13H69.5z"/>
		<path class="st0" d="M87.4,48.6c2.2-1.5,4.3-2.3,6.5-2.3c2.2,0,3.7,0.5,4.6,1.5c0.9,1,1.4,2.5,1.4,4.6v13.8h-2.9V52.5
			c0-1.4-0.3-2.3-0.8-2.9s-1.4-0.9-2.6-0.9c-2.1,0-4.2,0.8-6.1,2.3v15.3h-2.9V40.5l2.9-0.3V48.6z"/>
		<path class="st0" d="M113.6,66.8c-3,0-5.1-0.8-6.4-2.5c-1.3-1.7-1.9-4.2-1.9-7.7c0-6.8,2.7-10.2,8.1-10.2c5.4,0,8,3.3,8,9.8v0.7
			h-13.3c0,2.7,0.4,4.6,1.2,5.8c0.8,1.2,2.2,1.8,4.2,1.8c3.2,0,4.9-1.3,5.2-3.9l2.4,0.1C120.7,64.7,118.2,66.8,113.6,66.8z
			 M117.2,50.3c-0.7-1-2-1.5-3.8-1.5s-3,0.5-3.8,1.6c-0.8,1.1-1.2,2.5-1.4,4.4h10.3C118.4,52.8,118,51.3,117.2,50.3z"/>
		<path class="st0" d="M130,66.3h-2.9V46.8h1.7l1.1,3.5c1.6-2.5,3.9-3.8,7-3.9V49c-3.1,0.1-5.3,1.4-6.8,3.9V66.3z"/>
		<path class="st0" d="M152.1,47.6c1.4,1,2,2.8,2,5.5v13.1h-1.9l-0.7-3c-2.2,2.3-4.6,3.5-7.2,3.5c-1.7,0-3-0.5-3.8-1.4
			c-0.8-0.9-1.2-2.1-1.2-3.7c0-1.5,0.5-2.8,1.4-3.7c1-1,2.8-1.6,5.4-2.1l5.1-0.8v-1.9c0-1.7-0.4-2.8-1.1-3.5c-0.7-0.6-1.7-1-2.9-1
			c-2.5,0-4,1.2-4.5,3.6l-2.4-0.7c0.4-1.7,1.1-3,2.3-3.9c1.2-0.9,2.7-1.4,4.7-1.4S150.9,46.8,152.1,47.6z M145.1,64.5
			c2,0,4.1-1.1,6.1-3.3v-4.1l-4.8,0.8c-1.6,0.3-2.7,0.8-3.3,1.4c-0.6,0.6-0.9,1.4-0.9,2.3c0,0.9,0.2,1.6,0.7,2.1
			C143.4,64.3,144.1,64.5,145.1,64.5z"/>
		<path class="st0" d="M169.9,46.3c4.9,0,7.4,3.4,7.4,10.2s-2.5,10.2-7.6,10.2c-1.7,0-3.4-0.4-5.3-1.1v8.1l-2.9,0.4V46.8h1.7
			l0.7,1.7C165.8,47.1,167.8,46.3,169.9,46.3z M173.2,50.9c-0.8-1.5-2.1-2.2-3.8-2.2s-3.5,0.6-5,1.7v13c1.4,0.6,3,0.9,4.8,0.9
			c3.5,0,5.2-2.6,5.2-7.8C174.3,54.3,173.9,52.4,173.2,50.9z"/>
		<path class="st0" d="M187,74.6l-2.7-0.5l3-7.7L180,46.8h3l5.8,15.8l5.6-15.8h3L187,74.6z"/>
	</g>
	<g>
		<path class="st1" d="M23.8,55.9c-3.1-1.8-5.6-4.2-7.3-7.3c-1.8-3.1-2.7-6.6-2.7-10.6c0-4,0.8-7.6,2.5-10.6c0.6-1,1.2-2,1.9-2.9
			C-3.2,38.9,0.8,65.4,0.8,65.4c0,0,0,0,0,0c0.5-0.5,7.1-6.6,24.1-9C24.5,56.3,24.1,56.1,23.8,55.9z"/>
		<g>
			<g>
				<path class="st1" d="M40.5,24.1c-2.1-1.3-4.6-1.9-7.4-1.9c-2.7,0-5.2,0.7-7.4,1.9c-2.1,1.3-3.8,3.1-5.1,5.4
					c-0.8,1.5-1.4,3.3-1.6,5.2h28.2c-0.2-1.9-0.8-3.6-1.6-5.2C44.3,27.3,42.6,25.4,40.5,24.1z"/>
			</g>
		</g>
		<path class="st1" d="M59.5,0.4c0,0-6.6,9.2-26.1,17.2c3.5,0,6.7,0.9,9.6,2.5c2.9,1.7,5.2,4.1,6.9,7.1c1.7,3.1,2.5,6.6,2.5,10.6
			c0,0.2,0,0.3,0,0.5c0,0.2,0,0.4,0,0.6H18.5c0.1,1.5,0.8,7,5,11c2.2,2.1,5.1,3.5,8.6,4.2c1.3,0.2,6.6,0.6,11.8-2.2
			C69.7,37.7,59.5,0.4,59.5,0.4z"/>
		<path class="st0" d="M2,70.1c0,0,25.7,8.6,42.4-3c19.2-13.4,20-35,20-35s-4.6,20.6-21.9,25.9C26.4,62.9,18.5,58.5,2,70.1z"/>
	</g>
</g>
</svg>
