<?xml version="1.0" encoding="utf-8"?>
<!-- Generator: Adobe Illustrator 27.6.1, SVG Export Plug-In . SVG Version: 6.00 Build 0)  -->
<svg version="1.1" id="Layer_1" xmlns="http://www.w3.org/2000/svg" xmlns:xlink="http://www.w3.org/1999/xlink" x="0px" y="0px"
	 viewBox="0 0 1296 69.9" style="enable-background:new 0 0 1296 69.9;" xml:space="preserve">
<style type="text/css">
	.st0{opacity:0.85;}
	.st1{clip-path:url(#SVGID_00000176027401438768384160000002964516475805353092_);}
	.st2{clip-path:url(#SVGID_00000047774331805026737130000009932108822813276293_);fill:#2B8CB2;}
	.st3{clip-path:url(#SVGID_00000062176783428524658320000011542101984983603865_);}
	.st4{fill:#4A8BA6;}
	.st5{clip-path:url(#SVGID_00000110470951717344171240000000519995245617481884_);}
	.st6{clip-path:url(#SVGID_00000174580509137324219020000005409498629455801742_);fill:#2B8CB2;}
	.st7{clip-path:url(#SVGID_00000075867807403291271430000013698186025848262274_);fill:#A9C6D9;}
	.st8{clip-path:url(#SVGID_00000062880087391422027440000001224072044930454700_);fill:#A9C6D9;}
	.st9{clip-path:url(#SVGID_00000036248250078606475060000010710174398533567658_);}
	.st10{fill:#286A82;}
	.st11{clip-path:url(#SVGID_00000016790495117682738000000007490834116538512571_);fill:#2B8CB2;}
	.st12{clip-path:url(#SVGID_00000036959410072334112600000002958233656230679427_);fill:#A9C6D9;}
</style>
<g class="st0">
	<defs>
		<rect id="SVGID_1_" x="0" class="st0" width="1296" height="70"/>
	</defs>
	<clipPath id="SVGID_00000172432998582078402750000011820471231470802610_">
		<use xlink:href="#SVGID_1_"  style="overflow:visible;"/>
	</clipPath>
	
		<g id="Layer_1_00000080925744661863561960000018068173927260669337_" style="clip-path:url(#SVGID_00000172432998582078402750000011820471231470802610_);">
		<g>
			<g>
				<defs>
					<rect id="SVGID_00000141425846027250713120000017799358534598355593_" x="0" y="-99" width="1296" height="262.1"/>
				</defs>
				<clipPath id="SVGID_00000101075246311208538170000001063626371020555433_">
					<use xlink:href="#SVGID_00000141425846027250713120000017799358534598355593_"  style="overflow:visible;"/>
				</clipPath>
			</g>
			<g>
				<defs>
					<rect id="SVGID_00000089550739163568471800000010584217128457895571_" x="0" y="-99" width="1296" height="262.1"/>
				</defs>
				<clipPath id="SVGID_00000107587126414386722620000002103158068814423961_">
					<use xlink:href="#SVGID_00000089550739163568471800000010584217128457895571_"  style="overflow:visible;"/>
				</clipPath>
				<g style="clip-path:url(#SVGID_00000107587126414386722620000002103158068814423961_);">
					<path class="st4" d="M386.1,175.3l10.1,1.9h3.8c1.1-4.2,8.5-27,40.7-51.4c32.8-25,98.4-56.5,225.3-66.2
						c-4.7-2.8-9.8-5.4-15.3-7.9c-3-1.4-6-2.7-8.9-3.9c-47.7,5-89.8,13.3-125.6,25.1c-34.4,11.4-63.1,25.8-85.3,43
						C392.1,145.9,386.5,174.1,386.1,175.3z"/>
				</g>
			</g>
			<g>
				<defs>
					<rect id="SVGID_00000023961348230748485490000009404387858473256874_" x="0" y="-99" width="1296" height="262.1"/>
				</defs>
				<clipPath id="SVGID_00000034074942353201022430000011121458165507772561_">
					<use xlink:href="#SVGID_00000023961348230748485490000009404387858473256874_"  style="overflow:visible;"/>
				</clipPath>
				<g style="clip-path:url(#SVGID_00000034074942353201022430000011121458165507772561_);">
					<path class="st4" d="M669.5,45.6c6.9,3.8,13.2,8,19.1,12.3c48.3-4.8,90.9-15.1,126.7-30.6c18.5-8,35.2-17.4,50.1-28.1
						c3.8-2.8,7.4-5.6,11-8.5c6.9-5.6,13.4-11.6,19.3-17.8c36.1-38,41.5-73.8,41.7-75.3l-6.9-1h-7.1c-1.2,5.8-8.4,35.9-38.6,67.3
						c-4.7,5-10.1,10.1-16.4,15.2c-3.4,2.8-7.1,5.7-11.1,8.5c-36.2,26-94.6,51.2-187.4,57.8C669.7,45.4,669.5,45.5,669.5,45.6z"/>
				</g>
			</g>
			<g>
				<defs>
					<rect id="SVGID_00000021085893742562866590000002889831722770580918_" x="0" y="-99" width="1296" height="262.1"/>
				</defs>
				<clipPath id="SVGID_00000096059046664996281050000004538394867238036651_">
					<use xlink:href="#SVGID_00000021085893742562866590000002889831722770580918_"  style="overflow:visible;"/>
				</clipPath>
				<path style="clip-path:url(#SVGID_00000096059046664996281050000004538394867238036651_);fill:#2B8CB2;" d="M865.1-0.9
					c9.9,12.6,21.2,22.8,33.5,31.4c6.2,4.3,12.6,8.1,19.2,11.7c22,11.9,46,20.2,69.6,28.4c59,20.4,109.9,38.1,112.4,106.6h7l7-0.2
					c-1.2-35.3-14.2-62-39.8-81.7c-22.4-17.3-51.3-27.3-81.9-37.9c-15.3-5.3-30.7-10.6-45.6-17c-8.7-3.7-17.2-7.8-25.3-12.4
					c-17-9.6-32.3-21.5-44.8-37.4C872.8-6.5,869.1-3.6,865.1-0.9z"/>
			</g>
			<g>
				<defs>
					<rect id="SVGID_00000033366992126659972150000002889147431701416377_" x="0" y="-99" width="1296" height="262.1"/>
				</defs>
				<clipPath id="SVGID_00000159449394665735687390000001336514998159737756_">
					<use xlink:href="#SVGID_00000033366992126659972150000002889147431701416377_"  style="overflow:visible;"/>
				</clipPath>
				<path style="clip-path:url(#SVGID_00000159449394665735687390000001336514998159737756_);fill:#A9C6D9;" d="M1204.5,146.7
					c14.9,17.7,17.6,29.8,17.8,30.5h0.2l6.8-1.2l0,0h-0.1h0.2l6.7-1.2c-0.3-2.2-10.7-56.1-123.1-109.7l-0.1-0.1
					c-18.8-8.4-35-17.8-48.9-27.5c-7,0.6-14.2,1.1-21.4,1.5c17.3,13.7,38.6,27,64.5,38.7C1162,103.9,1190.5,129.7,1204.5,146.7z"/>
			</g>
			<g>
				<defs>
					<rect id="SVGID_00000137107500030807762710000016690132887264979370_" x="0" y="-99" width="1296" height="262.1"/>
				</defs>
				<clipPath id="SVGID_00000005225972173086457570000002724256942474207919_">
					<use xlink:href="#SVGID_00000137107500030807762710000016690132887264979370_"  style="overflow:visible;"/>
				</clipPath>
				<path style="clip-path:url(#SVGID_00000005225972173086457570000002724256942474207919_);fill:#A9C6D9;" d="M975.5-103.4h-5.3
					h-8.6c0,1.6,0.2,30,18.2,66.5c9,18.3,23.7,40.7,47.4,62.7c6.8-0.3,13.4-0.6,19.9-1c-28.2-23.4-44.8-47.8-54.5-67.2
					C975.7-76.3,975.5-103.1,975.5-103.4z"/>
			</g>
			<g>
				<defs>
					<rect id="SVGID_00000176721454625342965740000002546025892141587368_" x="0" y="-99" width="1296" height="262.1"/>
				</defs>
				<clipPath id="SVGID_00000089544803839298638620000001744241859322504865_">
					<use xlink:href="#SVGID_00000176721454625342965740000002546025892141587368_"  style="overflow:visible;"/>
				</clipPath>
				<g style="clip-path:url(#SVGID_00000089544803839298638620000001744241859322504865_);">
					<path class="st10" d="M921.3,28c8.1,4.6,16.6,8.7,25.3,12.4c11.9-0.4,24.3-0.4,37.1-0.1h0.1c20.4,0.2,40-0.3,58.8-1.3
						c7.3-0.4,14.4-0.9,21.4-1.5c38.8-3.2,73.7-9.2,104.4-17.8c40.8-11.5,74.3-27.8,99.5-48.4c43.8-35.9,47.5-72.6,47.6-74.1
						l-6.7-0.6h-7.2c-0.7,4.7-6.6,35-43.7,64.9c-32.2,25.9-94.2,56-210.8,63.3c-6.4,0.4-13.1,0.7-19.9,1
						c-13.7,0.5-28.1,0.7-43.3,0.6C961.8,25.8,940.8,26.3,921.3,28z"/>
				</g>
			</g>
			<g>
				<defs>
					<rect id="SVGID_00000129194010291561372510000000193563597331577273_" x="0" y="-99" width="1296" height="262.1"/>
				</defs>
				<clipPath id="SVGID_00000183243538897160041160000012470134316318546348_">
					<use xlink:href="#SVGID_00000129194010291561372510000000193563597331577273_"  style="overflow:visible;"/>
				</clipPath>
			</g>
			<g>
				<defs>
					<rect id="SVGID_00000160164499638966357250000013577819935334923934_" x="0" y="-99" width="1296" height="262.1"/>
				</defs>
				<clipPath id="SVGID_00000046298110884439173330000011157311940340784013_">
					<use xlink:href="#SVGID_00000160164499638966357250000013577819935334923934_"  style="overflow:visible;"/>
				</clipPath>
				<path style="clip-path:url(#SVGID_00000046298110884439173330000011157311940340784013_);fill:#A9C6D9;" d="M40.5-102.9
					c0.1,1.5,4.2,36,38.4,69.7C98.7-13.6,124.7,1.6,156,12.1c38.7,12.9,85.8,18.7,140,17.2c24.2-0.7,46.8-1.4,66.8-2
					c168.9-5.1,214.7-6.5,279,20.4c2.9,1.3,5.9,2.5,8.9,3.9c5.5,2.4,10.5,5.1,15.3,7.9c17.9,10.6,31.2,23.3,45.2,36.7
					c8.5,8.1,17.2,16.5,27.3,24.7c2.2-3.9,4.6-7.9,7.4-11.9c-9-7.5-17-15.2-25-22.8c-10.5-10-20.6-19.7-32.5-28.5
					c-5.8-4.3-12.1-8.5-19.1-12.3c-4-2.2-8.3-4.4-12.9-6.4c-72.2-32.2-114.8-30.9-294-25.4c-20,0.6-42.6,1.3-66.8,2
					C177.8,18.9,118.5-14,89.4-42.2c-28.5-27.6-34.2-56.2-35-61.2h-7.1L40.5-102.9z"/>
			</g>
			<g>
				<g>
					<path class="st10" d="M723.2,176.1l13.9-0.4c0-0.2-0.3-21,12.8-46.1c2-3.9,4.4-7.9,7.1-11.9c4.3-6.4,9.5-12.8,15.8-19.1
						c31.6-31.5,80.3-50.4,145.2-56.4c-6.6-3.5-13-7.4-19.2-11.7c-20.8,2.9-40.1,7.1-57.5,12.8c-32.3,10.5-58.8,25.9-78.6,45.8
						c-6.6,6.6-12.1,13.4-16.7,20c-2.8,4-5.3,8-7.4,11.9C722.6,150.1,723.1,174.8,723.2,176.1z"/>
				</g>
			</g>
		</g>
	</g>
</g>
</svg>
