<?xml version="1.0" encoding="utf-8"?>
<!-- Generator: Adobe Illustrator 27.6.1, SVG Export Plug-In . SVG Version: 6.00 Build 0)  -->
<svg version="1.1" id="Layer_1" xmlns="http://www.w3.org/2000/svg" xmlns:xlink="http://www.w3.org/1999/xlink" x="0px" y="0px"
	 viewBox="0 0 400 467" style="enable-background:new 0 0 400 467;" xml:space="preserve">
<style type="text/css">
	.st0{opacity:0.63;fill:#06415D;}
	.st1{opacity:0.63;fill:#768D99;}
	.st2{opacity:0.63;fill:#154D63;}
</style>
<g>
	<path class="st0" d="M266.2,0.9c0,0-49.6,8-21,20.3c2.2,0.9,4.2,1.7,6.2,2.2c9.5,2.7,17,1.4,22.6-1.2c8.5-3.9,12.6-10.9,12.6-10.9
		C299.9-4.4,266.2,0.9,266.2,0.9z"/>
	<path class="st1" d="M330.2,167.6c-33.3-15.3-65.4-20.8-93.7-21.2c-4.6-0.1-9.2,0-13.6,0.2c-33.9,16.6-76,32.1-101.7,30.4
		c-2,1.7-4.2,3.7-6.6,5.9c-27.1,25.2-67.3,75.7,32.5,85.6c3.1,0.3,6.1,0.6,9,0.9c125.4,11.7,133.8-3.2,133.8-3.2
		c12.8-12.4,22.6-23.3,29.9-32.9C358.6,182.4,330.2,167.6,330.2,167.6z"/>
	<path class="st2" d="M288.5,92c-2.9-10.4-29-14.6-53.9-14.9c-2.5,0-5.1,0-7.5,0c-11,7.1-21.2,12.4-27.4,12
		C185,88.3,175,84,162.1,79c-5.9-0.4-12.2-0.8-18.8-0.9c-11.8-0.1-24.9,0.9-39.9,4.5c-43.2,10.4-20,55.6-3.3,84.2
		c3.8,6.4,11.2,9.5,20.9,10.2c25.8,1.7,67.8-13.8,101.7-30.4c10.3-5.1,19.9-10.2,28-15C295.8,105,288.5,92,288.5,92z"/>
	<path class="st1" d="M279.6,23.9c-1.4-0.8-3.2-1.4-5.5-1.7c-5.6,2.6-13.1,3.9-22.6,1.2c-0.9,0.2-1.8,0.3-2.8,0.5
		c-2.1,0.4-4.1,0.8-6.1,1.1c-42.5,7.3-40.8-3.5-63.9-3.9c-24.1-0.4-39.2,19.3-55.6,18.6C106.7,39,103.7,48,103.7,48
		c2.1,24.7,31.4,20.8,51.5,28.3c2.4,0.9,4.7,1.8,6.9,2.7C175,84,185,88.3,199.6,89.1c6.2,0.4,16.4-4.9,27.4-12
		c19.2-12.5,40.8-30.6,47.1-33.7C280.7,40.2,288.6,28.8,279.6,23.9z"/>
	<path class="st0" d="M372.3,249.1c-6-3.8-24.4-11.3-48.1-15.2c-1.5-0.2-2.9-0.5-4.4-0.7c-7.3,9.6-17.1,20.5-29.9,32.9
		c0,0-8.3,14.9-133.8,3.2c-8.4,1.5-16.9,2.7-25.1,3.8c-41.5,5.3-78,5.6-83,6.8c-9.1,2.2-43.2,30.7-47.7,51.7
		c-4.5,21,39.9,61.2,98.8,82.9c16,5.9,34.6,8.8,53.3,9.9c28.5,1.7,57.2-0.8,76.6-3.3c14.7-1.9,24.2-3.7,24.2-3.7
		c33.6-4.8,37.8-24.7,108.7-87.7C432.8,266.8,385.5,257.5,372.3,249.1z"/>
	<path class="st1" d="M248.1,426.3c-5.8-2.2-12.5-3.8-19.1-5.1c-19.4,2.5-48.1,5-76.6,3.3c-6.4,2.1-11,4.5-12.5,6.9
		c-0.1,0.1-0.2,0.3-0.3,0.4c-3.9,7.9-9.1,37.6,59.1,35.2c53.2-1.9,67.2-25.3,67.2-25.3C264.8,434.7,257.6,429.8,248.1,426.3z"/>
</g>
</svg>
