<?xml version="1.0" encoding="utf-8"?>
<!-- Generator: Adobe Illustrator 27.5.0, SVG Export Plug-In . SVG Version: 6.00 Build 0)  -->
<svg version="1.1" id="Layer_1" xmlns="http://www.w3.org/2000/svg" xmlns:xlink="http://www.w3.org/1999/xlink" x="0px" y="0px"
	 viewBox="0 0 612 792" style="enable-background:new 0 0 612 792;" xml:space="preserve">
<style type="text/css">
	.st0{fill:#C9C9C9;}
	.st1{fill:#286A82;}
</style>
<g>
	<path class="st0" d="M534.2,77.8L456.3,0H0v792h612V155.7L534.2,77.8z M587,166v601H25V25h421l10.3,10.3v120.4h120.4L587,166z"/>
	<rect x="110.7" y="231.9" class="st0" width="388.7" height="36.7"/>
	<rect x="110.7" y="400" class="st0" width="219.8" height="36.7"/>
	<rect x="110.7" y="568.1" class="st0" width="95.1" height="36.7"/>
	<path class="st1" d="M426.9,247.5L392,282.4l93.8,93.8l34.9-34.9c18-18,18-47.2,0-65.3l-28.4-28.5
		C474.2,229.5,445,229.5,426.9,247.5L426.9,247.5z M375.7,298.7L207.5,466.9c-7.5,7.5-13,16.8-16,27L166,580.6
		c-1.8,6.1-0.1,12.7,4.3,17.2c4.5,4.5,11,6.1,17.1,4.4l86.8-25.5c10.2-3,19.5-8.5,27-16l168.3-168.2L375.7,298.7z"/>
</g>
</svg>
