<?xml version="1.0" encoding="utf-8"?>
<!-- Generator: Adobe Illustrator 27.5.0, SVG Export Plug-In . SVG Version: 6.00 Build 0)  -->
<svg version="1.1" id="Layer_1" xmlns="http://www.w3.org/2000/svg" xmlns:xlink="http://www.w3.org/1999/xlink" x="0px" y="0px"
	 viewBox="0 0 612 792" style="enable-background:new 0 0 612 792;" xml:space="preserve">
<style type="text/css">
	.st0{fill:#C9C9C9;}
	.st1{fill:#2AB34B;}
	.st2{fill:#286A82;}
</style>
<g>
	<path class="st0" d="M534.2,77.8L456.3,0H0v792h612V155.7L534.2,77.8z M587,166v601H25V25h421l10.3,10.3v120.4h120.4L587,166z"/>
	<polygon class="st1" points="124.1,291.5 76.4,220 107,199.6 132.9,238.5 215.4,175.7 237.7,204.9 	"/>
	<rect x="251.7" y="231.9" class="st0" width="261.8" height="36.7"/>
	<polygon class="st1" points="124.1,459.6 76.4,388.1 107,367.7 132.9,406.6 215.4,343.8 237.7,373 	"/>
	<rect x="251.7" y="400" class="st0" width="261.8" height="36.7"/>
	<rect x="251.7" y="568.1" class="st0" width="261.8" height="36.7"/>
	<path class="st2" d="M202.5,645.4H85.4V528.3h117.1V645.4z M109.9,620.9H178v-68.1h-68.1V620.9z"/>
</g>
</svg>
