<?xml version="1.0" encoding="utf-8"?>
<!-- Generator: Adobe Illustrator 27.5.0, SVG Export Plug-In . SVG Version: 6.00 Build 0)  -->
<svg version="1.1" id="Layer_1" xmlns="http://www.w3.org/2000/svg" xmlns:xlink="http://www.w3.org/1999/xlink" x="0px" y="0px"
	 viewBox="0 0 612 792" style="enable-background:new 0 0 612 792;" xml:space="preserve">
<style type="text/css">
	.st0{fill:#DB4D4D;}
	.st1{fill:#C9C9C9;}
</style>
<g>
	<path class="st0" d="M218.3,166.5c16.2,0,29.2,13.1,29.2,29.2V225h117v-29.2c0-16.2,13.1-29.2,29.2-29.2s29.2,13.1,29.2,29.2V225
		h43.9c24.2,0,43.9,19.6,43.9,43.9v43.9H101.3v-43.9c0-24.2,19.6-43.9,43.9-43.9H189v-29.2C189,179.6,202.1,166.5,218.3,166.5z
		 M101.3,342h409.4v248.6c0,24.2-19.6,43.9-43.9,43.9H145.2c-24.2,0-43.9-19.6-43.9-43.9C101.3,590.6,101.3,342,101.3,342z
		 M380,445.2c8.6-8.6,8.6-22.5,0-31s-22.5-8.6-31,0l-42.9,42.9l-42.9-42.9c-8.6-8.6-22.5-8.6-31,0s-8.6,22.5,0,31l42.9,42.9
		L232.2,531c-8.6,8.6-8.6,22.5,0,31s22.5,8.6,31,0l42.9-42.9L349,562c8.6,8.6,22.5,8.6,31,0s8.6-22.5,0-31l-42.9-42.9L380,445.2z"/>
	<path class="st1" d="M534.2,77.8L456.3,0H0v792h612V155.7L534.2,77.8z M587,166v601H25V25h421l10.3,10.3v120.4h120.4L587,166z"/>
</g>
</svg>
