<?xml version="1.0" encoding="utf-8"?>
<!-- Generator: Adobe Illustrator 27.5.0, SVG Export Plug-In . SVG Version: 6.00 Build 0)  -->
<svg version="1.1" id="Layer_1" xmlns="http://www.w3.org/2000/svg" xmlns:xlink="http://www.w3.org/1999/xlink" x="0px" y="0px"
	 viewBox="0 0 612 792" style="enable-background:new 0 0 612 792;" xml:space="preserve">
<style type="text/css">
	.st0{fill:#286A82;}
	.st1{fill:#C9C9C9;}
</style>
<g>
	<path class="st0" d="M273.6,205.7v64.7c0,17.9,14.5,32.4,32.4,32.4h64.7c17.9,0,32.4-14.5,32.4-32.4v-64.7
		c0-17.9-14.5-32.4-32.4-32.4H306C288.1,173.3,273.6,187.8,273.6,205.7z M163.1,350.2c-15.5,8.9-20.7,28.7-11.8,44.2l32.4,56
		c8.9,15.5,28.7,20.7,44.2,11.8l56-32.4c15.5-8.9,20.7-28.7,11.8-44.2l-32.4-56c-8.9-15.5-28.7-20.7-44.2-11.8L163.1,350.2z
		 M370.7,335.1c-17.9,0-32.4,14.5-32.4,32.4v64.7c0,17.9,14.5,32.4,32.4,32.4h64.7c17.9,0,32.4-14.5,32.4-32.4v-64.7
		c0-17.9-14.5-32.4-32.4-32.4H370.7z M435.4,496.9c-17.9,0-32.4,14.5-32.4,32.4v64.7c0,17.9,14.5,32.4,32.4,32.4h64.7
		c17.9,0,32.4-14.5,32.4-32.4v-64.7c0-17.9-14.5-32.4-32.4-32.4H435.4z M241.3,529.2v64.7c0,17.9,14.5,32.4,32.4,32.4h64.7
		c17.9,0,32.4-14.5,32.4-32.4v-64.7c0-17.9-14.5-32.4-32.4-32.4h-64.7C255.7,496.9,241.3,511.3,241.3,529.2z M111.9,496.9
		c-17.9,0-32.4,14.5-32.4,32.4v64.7c0,17.9,14.5,32.4,32.4,32.4h64.7c17.9,0,32.4-14.5,32.4-32.4v-64.7c0-17.9-14.5-32.4-32.4-32.4
		H111.9z"/>
	<path class="st1" d="M612,155.7L563.4,107l-29.2-29.2l-43.2-43.2L456.3,0H0v792h612L612,155.7L612,155.7z M587,166v601H25V25h421
		l10.4,10.4v120.3h0v0h120.3L587,166z"/>
</g>
</svg>
