<?xml version="1.0" encoding="utf-8"?>
<!-- Generator: Adobe Illustrator 27.5.0, SVG Export Plug-In . SVG Version: 6.00 Build 0)  -->
<svg version="1.1" id="Layer_1" xmlns="http://www.w3.org/2000/svg" xmlns:xlink="http://www.w3.org/1999/xlink" x="0px" y="0px"
	 viewBox="0 0 612 792" style="enable-background:new 0 0 612 792;" xml:space="preserve">
<style type="text/css">
	.st0{fill:none;stroke:#A9C5D7;stroke-width:20.4158;stroke-miterlimit:10;}
	.st1{fill:#C9C9C9;}
	.st2{fill:#286A82;}
</style>
<g>
	<circle class="st0" cx="306" cy="428.7" r="228.8"/>
	<path class="st1" d="M534.2,77.8L456.3,0H0v792h612V155.7L534.2,77.8z M587,166v601H25V25h421l10.3,10.3v120.4h120.4L587,166z"/>
	<path class="st2" d="M355.5,491.5l-131.1,50.4c-17.6,6.8-35-10.5-28.2-28.2l50.4-131.1c3-7.7,9-13.7,16.7-16.7l131.1-50.4
		c17.6-6.8,35,10.5,28.2,28.2l-50.4,131.1C369.4,482.5,363.3,488.5,355.5,491.5z M338.6,428.7c0-16.1-13-29.1-29.1-29.1
		s-29.1,13-29.1,29.1s13,29.1,29.1,29.1S338.6,444.7,338.6,428.7z"/>
</g>
</svg>
