<?xml version="1.0" encoding="utf-8"?>
<!-- Generator: Adobe Illustrator 27.5.0, SVG Export Plug-In . SVG Version: 6.00 Build 0)  -->
<svg version="1.1" id="Layer_1" xmlns="http://www.w3.org/2000/svg" xmlns:xlink="http://www.w3.org/1999/xlink" x="0px" y="0px"
	 viewBox="0 0 612 792" style="enable-background:new 0 0 612 792;" xml:space="preserve">
<style type="text/css">
	.st0{fill:#286A82;}
	.st1{fill:#FFFFFF;}
	.st2{fill:#C9C9C9;}
</style>
<g>
	<path class="st0" d="M54.3,283.8v40c0,14.8,12,26.7,26.8,26.7h13.4h40.2v-66.7c0-22.1-18-40-40.2-40S54.3,261.7,54.3,283.8z
		 M148.3,243.8c8.4,11.2,13.4,25,13.4,40v253.4c0,29.4,24.1,53.4,53.7,53.4s53.7-23.9,53.7-53.4v-4.4c0-27,22.1-48.9,49.2-48.9
		h138.6V323.8c0-44.2-36.1-80-80.5-80L148.3,243.8L148.3,243.8z M443.4,617.2c51.9,0,93.9-41.8,93.9-93.4c0-7.3-6-13.3-13.4-13.3
		H318.2c-12.3,0-22.4,9.9-22.4,22.3v4.4c0,44.2-36.1,80-80.5,80h147.6H443.4z"/>
	<path class="st1" d="M421.1,338.8L293.2,466c-9.4,9.3-24.6,9.3-33.9,0l-64-63.6c-9.4-9.3-9.4-24.4,0-33.7s24.6-9.3,33.9,0l47,46.7
		L387.1,305c9.4-9.3,24.6-9.3,33.9,0S430.4,329.5,421.1,338.8L421.1,338.8z"/>
	<path class="st2" d="M538.4,78.4l-0.5-0.5L459.6,0H0v793h616.3V155.9h0.1L538.4,78.4z M591.1,166.2V768h-566V25h424l10.5,10.4
		v120.5h121.1L591.1,166.2z"/>
</g>
</svg>
