<?xml version="1.0" encoding="utf-8"?>
<!-- Generator: Adobe Illustrator 27.5.0, SVG Export Plug-In . SVG Version: 6.00 Build 0)  -->
<svg version="1.1" id="Layer_1" xmlns="http://www.w3.org/2000/svg" xmlns:xlink="http://www.w3.org/1999/xlink" x="0px" y="0px"
	 viewBox="0 0 612 792" style="enable-background:new 0 0 612 792;" xml:space="preserve">
<style type="text/css">
	.st0{fill:#286A82;}
	.st1{fill:#C9C9C9;}
</style>
<g>
	<path class="st0" d="M290.3,288.9c0-7-4.4-13.2-10-17.4c-8.8-6.6-14.3-15.8-14.3-25.9c0-20.2,21.9-36.5,48.7-36.5
		s48.7,16.4,48.7,36.5c0,10.1-5.5,19.3-14.3,25.9c-5.6,4.2-10,10.4-10,17.4l0,0c0,9.7,7.9,17.7,17.7,17.7H400
		c20.2,0,36.5,16.4,36.5,36.5v43.2c0,9.7,7.9,17.7,17.7,17.7l0,0c7,0,13.2-4.4,17.4-10c6.6-8.8,15.8-14.3,25.9-14.3
		c20.2,0,36.5,21.9,36.5,48.7s-16.4,48.7-36.5,48.7c-10.1,0-19.3-5.5-25.9-14.3c-4.2-5.6-10.4-10-17.4-10l0,0
		c-9.7,0-17.7,7.9-17.7,17.7v92c0,20.2-16.4,36.5-36.5,36.5h-43.2c-9.7,0-17.7-7.9-17.7-17.7l0,0c0-7,4.4-13.2,10-17.4
		c8.8-6.6,14.3-15.8,14.3-25.9c0-20.2-21.9-36.5-48.7-36.5S266,517.9,266,538c0,10.1,5.5,19.3,14.3,25.9c5.6,4.2,10,10.4,10,17.4
		l0,0c0,9.7-7.9,17.7-17.7,17.7h-92c-20.2,0-36.5-16.4-36.5-36.5v-92c0-9.7,7.9-17.7,17.7-17.7l0,0c7,0,13.2,4.4,17.4,10
		c6.6,8.8,15.8,14.3,25.9,14.3c20.2,0,36.5-21.9,36.5-48.7c0-26.9-16.4-48.7-36.5-48.7c-10.1,0-19.3,5.5-25.9,14.3
		c-4.2,5.6-10.4,10-17.4,10l0,0c-9.7,0-17.7-7.9-17.7-17.7v-43.2c0-20.2,16.4-36.5,36.5-36.5h92
		C282.4,306.6,290.3,298.7,290.3,288.9L290.3,288.9z"/>
	<path class="st1" d="M534.2,76L456.3-1.8H0v792h612V153.8L534.2,76z M587,164.2v601H25v-742h421l10.3,10.3v120.3v0.1h120.4
		L587,164.2z"/>
</g>
</svg>
