<?xml version="1.0" encoding="utf-8"?>
<!-- Generator: Adobe Illustrator 27.5.0, SVG Export Plug-In . SVG Version: 6.00 Build 0)  -->
<svg version="1.1" id="Layer_1" xmlns="http://www.w3.org/2000/svg" xmlns:xlink="http://www.w3.org/1999/xlink" x="0px" y="0px"
	 viewBox="0 0 612 792" style="enable-background:new 0 0 612 792;" xml:space="preserve">
<style type="text/css">
	.st0{fill:#C9C9C9;}
	.st1{fill:#286A82;}
</style>
<g>
	<path class="st0" d="M534.2,77.8L456.3,0H0v792h612V155.7L534.2,77.8z M587,166v601H25V25h421l10.3,10.3v120.4h120.4L587,166z"/>
	<path class="st1" d="M129.7,310c-7.9,0-14.4,6.5-14.4,14.4v19.9L270.9,472c18.7,15.3,45.4,15.3,64.1,0l155.5-127.7v-19.9
		c0-7.9-6.5-14.4-14.4-14.4H129.7z M115.3,400.4v154.9c0,7.9,6.5,14.4,14.4,14.4H476c7.9,0,14.4-6.5,14.4-14.4V400.4l-128,105.1
		c-34.6,28.4-84.5,28.4-119,0L115.3,400.4z M72,324.4c0-31.8,25.9-57.7,57.7-57.7H476c31.8,0,57.7,25.9,57.7,57.7v230.9
		c0,31.8-25.9,57.7-57.7,57.7H129.7C97.9,613,72,587.1,72,555.3V324.4z"/>
</g>
</svg>
