<?xml version="1.0" encoding="utf-8"?>
<!-- Generator: Adobe Illustrator 27.5.0, SVG Export Plug-In . SVG Version: 6.00 Build 0)  -->
<svg version="1.1" id="Layer_1" xmlns="http://www.w3.org/2000/svg" xmlns:xlink="http://www.w3.org/1999/xlink" x="0px" y="0px"
	 viewBox="0 0 612 792" style="enable-background:new 0 0 612 792;" xml:space="preserve">
<style type="text/css">
	.st0{fill:#286A82;}
	.st1{fill:#FFFFFF;}
	.st2{fill:#C9C9C9;}
</style>
<g>
	<g>
		<path class="st0" d="M199.2,240.7c-44.2,0-80.1,35.9-80.1,80.1v267.1c0,44.2,35.9,80.1,80.1,80.1h240.4h26.7
			c14.8,0,26.7-11.9,26.7-26.7s-11.9-26.7-26.7-26.7v-53.4c14.8,0,26.7-11.9,26.7-26.7V267.4c0-14.8-11.9-26.7-26.7-26.7h-26.7
			H199.2z M199.2,561.2h213.7v53.4H199.2c-14.8,0-26.7-11.9-26.7-26.7S184.4,561.2,199.2,561.2z"/>
		<path class="st1" d="M333.4,396.3c31.7,0,57.5-25.7,57.5-57.5s-25.7-57.5-57.5-57.5s-57.5,25.7-57.5,57.5S301.7,396.3,333.4,396.3
			z M312.9,417.9c-44.2,0-80,35.8-80,80c0,7.4,6,13.3,13.3,13.3h174.5c7.4,0,13.3-6,13.3-13.3c0-44.2-35.8-80-80-80H312.9z"/>
	</g>
	<path class="st2" d="M534.2,77.8L456.3,0H0v792h612V155.7L534.2,77.8z M587,767H25V25h421l10.3,10.3v120.4h120.4L587,166V767z"/>
</g>
</svg>
