<?xml version="1.0" encoding="utf-8"?>
<!-- Generator: Adobe Illustrator 27.5.0, SVG Export Plug-In . SVG Version: 6.00 Build 0)  -->
<svg version="1.1" id="Layer_1" xmlns="http://www.w3.org/2000/svg" xmlns:xlink="http://www.w3.org/1999/xlink" x="0px" y="0px"
	 viewBox="0 0 612 792" style="enable-background:new 0 0 612 792;" xml:space="preserve">
<style type="text/css">
	.st0{fill:#286A82;}
	.st1{fill:#C9C9C9;}
</style>
<g>
	<path class="st0" d="M214.1,330.9c0-50.8,41.1-91.9,91.9-91.9s91.9,41.1,91.9,91.9s-41.1,91.9-91.9,91.9S214.1,381.6,214.1,330.9z
		 M145.2,585.2c0-70.7,57.3-128,128-128h65.6c70.7,0,128,57.3,128,128c0,11.8-9.5,21.3-21.3,21.3h-279
		C154.7,606.6,145.2,597,145.2,585.2z"/>
	<path class="st1" d="M534.2,77.8L456.3,0H0v792h612V155.7L534.2,77.8z M587,166v601H25V25h421l10.3,10.3v120.4h120.4L587,166z"/>
</g>
</svg>
