<?xml version="1.0" encoding="utf-8"?>
<!-- Generator: Adobe Illustrator 27.5.0, SVG Export Plug-In . SVG Version: 6.00 Build 0)  -->
<svg version="1.1" id="Layer_1" xmlns="http://www.w3.org/2000/svg" xmlns:xlink="http://www.w3.org/1999/xlink" x="0px" y="0px"
	 viewBox="0 0 612 792" style="enable-background:new 0 0 612 792;" xml:space="preserve">
<style type="text/css">
	.st0{fill:#2AB34B;}
	.st1{fill:#C9C9C9;}
	.st2{fill:#286A82;}
</style>
<g>
	<path class="st0" d="M546.4,364.2l-91.9,91.9c-6.7,6.7-17.7,6.7-24.3,0l-45.9-45.9c-6.7-6.7-6.7-17.7,0-24.3s17.7-6.7,24.3,0
		l33.7,33.7l79.7-79.8c6.7-6.7,17.7-6.7,24.3,0S553.1,357.5,546.4,364.2L546.4,364.2z"/>
	<path class="st1" d="M534.2,76L456.3-1.8H0v792h612V153.8L534.2,76z M587,164.2v601H25v-742h421l10.3,10.3v120.3v0.1h120.4
		L587,164.2z"/>
	<path class="st2" d="M167.6,314.3c0-50.8,41.1-91.9,91.9-91.9s91.9,41.1,91.9,91.9s-41.1,91.9-91.9,91.9S167.6,365.1,167.6,314.3z
		 M98.7,568.7c0-70.7,57.3-128,128-128h65.6c70.7,0,128,57.3,128,128c0,11.8-9.5,21.3-21.3,21.3H120
		C108.2,590,98.7,580.5,98.7,568.7z"/>
</g>
</svg>
