<?xml version="1.0" encoding="utf-8"?>
<!-- Generator: Adobe Illustrator 27.5.0, SVG Export Plug-In . SVG Version: 6.00 Build 0)  -->
<svg version="1.1" id="Layer_1" xmlns="http://www.w3.org/2000/svg" xmlns:xlink="http://www.w3.org/1999/xlink" x="0px" y="0px"
	 viewBox="0 0 612 792" style="enable-background:new 0 0 612 792;" xml:space="preserve">
<style type="text/css">
	.st0{fill:#286A82;}
	.st1{fill:#C9C9C9;}
	.st2{fill:#F29020;}
	.st3{fill:#FFFFFF;}
</style>
<g>
	<path class="st0" d="M169.1,331.1c0-50.7,41.1-91.9,91.9-91.9s91.9,41.1,91.9,91.9S311.8,423,261,423S169.1,381.8,169.1,331.1z
		 M100.2,585.3c0-70.7,57.3-128,128-128h65.6c70.7,0,128,57.3,128,128c0,11.8-9.5,21.3-21.3,21.3h-279
		C109.7,606.6,100.2,597.1,100.2,585.3z"/>
	<path class="st1" d="M536.4,78.1L458.6,0.3H2.5V792h611.7V155.9L536.4,78.1z M589.3,166.3V767H27.5V25.3h420.8l10.3,10.3v120.3v0
		h120.3L589.3,166.3z"/>
	<g>
		<path class="st2" d="M479.4,208.5c0-11.3-9.1-20.5-20.5-20.5c-11.3,0-20.5,9.1-20.5,20.5v163.6c0,11.3,9.1,20.5,20.5,20.5
			c11.3,0,20.5-9.1,20.5-20.5V208.5z M458.9,474.5c14.1,0,25.6-11.4,25.6-25.6c0-14.1-11.4-25.6-25.6-25.6s-25.6,11.4-25.6,25.6
			C433.3,463,444.8,474.5,458.9,474.5z"/>
		<path class="st3" d="M458.9,188.1c11.3,0,20.5,9.1,20.5,20.5v163.6c0,11.3-9.1,20.5-20.5,20.5c-11.3,0-20.5-9.1-20.5-20.5V208.5
			C438.5,197.2,447.6,188.1,458.9,188.1 M458.9,423.3c14.1,0,25.6,11.4,25.6,25.6c0,14.1-11.4,25.6-25.6,25.6s-25.6-11.4-25.6-25.6
			C433.3,434.8,444.8,423.3,458.9,423.3 M458.9,188.1c-11.3,0-20.5,9.2-20.5,20.5v163.6c0,11.3,9.2,20.5,20.5,20.5
			s20.5-9.2,20.5-20.5V208.5C479.4,197.3,470.2,188.1,458.9,188.1L458.9,188.1z M458.9,423.3c-14.1,0-25.6,11.5-25.6,25.6
			s11.5,25.6,25.6,25.6s25.6-11.5,25.6-25.6S473,423.3,458.9,423.3L458.9,423.3z"/>
	</g>
</g>
</svg>
